<svg width="32" height="33" viewBox="0 0 32 33" fill="none" xmlns="http://www.w3.org/2000/svg">
<circle cx="16" cy="16.5" r="16" fill="#0088CC"/>
<path d="M11.0819 16.2903C11.0819 16.5358 11.1819 16.7449 11.3638 16.9267L18.1372 23.5637C18.3008 23.7183 18.5099 23.8092 18.7554 23.8092C19.2373 23.8092 19.6191 23.4365 19.6191 22.9455C19.6191 22.7 19.5191 22.4909 19.3646 22.3273L13.1821 16.2903L19.3646 10.2443C19.5191 10.0897 19.6191 9.8624 19.6191 9.63511C19.6191 9.14415 19.2373 8.77139 18.7554 8.77139C18.5099 8.77139 18.3008 8.85321 18.1372 9.01686L11.3638 15.6448C11.1819 15.8357 11.0819 16.0448 11.0819 16.2903Z" fill="#F9F9F9"/>
</svg>
