<svg width="180" height="133" viewBox="0 0 180 133" fill="none" xmlns="http://www.w3.org/2000/svg">
<path opacity="0.5" d="M39.8892 133C27.9224 133 18.2825 128.864 10.9695 120.593C3.65651 111.991 0 100.577 0 86.3507C0 68.1542 5.31856 51.1157 15.9557 35.2351C26.5928 19.3545 39.723 7.60945 55.3463 0L60.3324 8.43655C53.6842 13.7301 47.7008 20.1816 42.3823 27.791C37.3961 35.4005 33.4072 44.6642 30.4155 55.5821L40.8864 58.5597C51.5235 61.8681 59.8338 66.8308 65.8172 73.4478C72.133 80.0647 75.2909 88.1704 75.2909 97.7649C75.2909 108.352 71.8006 116.954 64.8199 123.571C57.8393 129.857 49.5291 133 39.8892 133ZM144.598 133C132.632 133 122.992 128.864 115.679 120.593C108.366 111.991 104.709 100.577 104.709 86.3507C104.709 68.1542 110.028 51.1157 120.665 35.2351C131.302 19.3545 144.432 7.60945 160.055 0L165.042 8.43655C158.393 13.7301 152.41 20.1816 147.091 27.791C142.105 35.4005 138.116 44.6642 135.125 55.5821L145.596 58.5597C156.233 61.8681 164.543 66.8308 170.526 73.4478C176.842 80.0647 180 88.1704 180 97.7649C180 108.352 176.51 116.954 169.529 123.571C162.548 129.857 154.238 133 144.598 133Z" fill="white"/>
</svg>
