<svg width="22" height="16" viewBox="0 0 22 16" fill="none" xmlns="http://www.w3.org/2000/svg">
<path d="M3.50195 15.0898H11.7461C13.8643 15.0898 15.0068 13.9561 15.0068 11.9609V3.96289C15.0068 1.96777 13.8906 0.833984 11.7725 0.833984H3.50195C1.40137 0.833984 0.241211 1.96777 0.241211 3.97168V12.1455C0.241211 14.1494 1.38379 15.0898 3.50195 15.0898ZM16.4482 11.2314L18.8037 13.2354C19.3047 13.6484 19.7529 13.9297 20.2363 13.9297C20.9922 13.9297 21.5459 13.4111 21.5459 12.5674V3.51465C21.5459 2.6709 20.9922 2.15234 20.2363 2.15234C19.7441 2.15234 19.3047 2.43359 18.8037 2.84668L16.4482 4.85059V11.2314Z" fill="#333333"/>
</svg>
