<svg width="19" height="18" viewBox="0 0 19 18" fill="none" xmlns="http://www.w3.org/2000/svg">
<path d="M1.14062 16.0039C0.730469 16.4141 0.71875 17.1289 1.14062 17.5391C1.5625 17.9492 2.26562 17.9492 2.67578 17.5391L9.67188 10.543L16.6562 17.5391C17.0781 17.9492 17.7812 17.9609 18.1914 17.5391C18.6016 17.1172 18.6016 16.4141 18.1914 16.0039L11.1953 9.00781L18.1914 2.02344C18.6016 1.60156 18.6133 0.898438 18.1914 0.488281C17.7695 0.078125 17.0781 0.078125 16.6562 0.488281L9.67188 7.48438L2.67578 0.488281C2.26562 0.078125 1.55078 0.0664062 1.14062 0.488281C0.730469 0.910156 0.730469 1.61328 1.14062 2.01172L8.13672 9.00781L1.14062 16.0039Z" fill="#333333"/>
</svg>
