<svg width="58" height="43" viewBox="0 0 58 43" fill="none" xmlns="http://www.w3.org/2000/svg">
<path opacity="0.1" d="M12.8 42.88C8.96 42.88 5.86667 41.5467 3.52 38.88C1.17333 36.1067 0 32.4267 0 27.84C0 21.9733 1.70667 16.48 5.12 11.36C8.53333 6.24 12.7467 2.45333 17.76 0L19.36 2.71999C17.2267 4.42666 15.3067 6.50667 13.6 8.96C12 11.4133 10.72 14.4 9.76 17.92L13.12 18.88C16.5333 19.9467 19.2 21.5467 21.12 23.68C23.1467 25.8133 24.16 28.4267 24.16 31.52C24.16 34.9333 23.04 37.7067 20.8 39.84C18.56 41.8667 15.8933 42.88 12.8 42.88ZM46.4 42.88C42.56 42.88 39.4667 41.5467 37.12 38.88C34.7733 36.1067 33.6 32.4267 33.6 27.84C33.6 21.9733 35.3067 16.48 38.72 11.36C42.1333 6.24 46.3467 2.45333 51.36 0L52.96 2.71999C50.8267 4.42666 48.9067 6.50667 47.2 8.96C45.6 11.4133 44.32 14.4 43.36 17.92L46.72 18.88C50.1333 19.9467 52.8 21.5467 54.72 23.68C56.7467 25.8133 57.76 28.4267 57.76 31.52C57.76 34.9333 56.64 37.7067 54.4 39.84C52.16 41.8667 49.4933 42.88 46.4 42.88Z" fill="#3CA974"/>
</svg>
