<svg width="16" height="16" viewBox="0 0 16 16" fill="none" xmlns="http://www.w3.org/2000/svg">
<path d="M15.3037 5.58196L10.8976 5.16533C10.6198 5.14008 10.3798 4.96333 10.2663 4.6982L8.68818 0.872739C8.43567 0.241476 7.53915 0.241476 7.28665 0.872739L5.72111 4.6982C5.62011 4.96333 5.36761 5.14008 5.08985 5.16533L0.683632 5.58196C0.0271188 5.64509 -0.238012 6.46573 0.254373 6.90762L3.57482 9.82405C3.78945 10.0134 3.87782 10.2912 3.8147 10.5689L2.8173 14.6594C2.6658 15.3034 3.36019 15.8336 3.94095 15.4928L7.6149 13.3338C7.85478 13.1949 8.14516 13.1949 8.38504 13.3338L12.0591 15.4928C12.6399 15.8336 13.3343 15.316 13.1826 14.6594L12.1979 10.5689C12.1347 10.2912 12.2231 10.0134 12.4378 9.82405L15.7582 6.90762C16.238 6.46573 15.9602 5.64509 15.3037 5.58196Z"/>
</svg>
