<?xml version="1.0" encoding="UTF-8"?><!DOCTYPE svg PUBLIC "-//W3C//DTD SVG 1.1//EN" "http://www.w3.org/Graphics/SVG/1.1/DTD/svg11.dtd"><svg xmlns="http://www.w3.org/2000/svg" xmlns:xlink="http://www.w3.org/1999/xlink"><defs/><symbol id="cart" viewBox="0 0 18 18"><path fill-rule="evenodd" clip-rule="evenodd" d="M14.727 6.667H3.273v8.166h11.454V6.667zM3.273 5.5C2.57 5.5 2 6.022 2 6.667v8.166c0 .644.57 1.166 1.273 1.166h11.454C15.43 16 16 15.477 16 14.833V6.667c0-.645-.57-1.167-1.273-1.167H3.273z"/><path fill-rule="evenodd" clip-rule="evenodd" d="M8.682 3.167h.637c1.581 0 2.863 1.175 2.863 2.624 0 .099-.006.196-.017.292h1.278a3.52 3.52 0 00.012-.292C13.455 3.697 11.603 2 9.319 2h-.637C6.398 2 4.546 3.697 4.546 5.791c0 .099.004.196.012.292h1.278a2.434 2.434 0 01-.017-.292c0-1.45 1.282-2.624 2.863-2.624z"/><path fill-rule="evenodd" clip-rule="evenodd" d="M4.545 9.583V5.5h1.273v4.083H4.545zm7.637 0V5.5h1.273v4.083h-1.273z"/></symbol><symbol id="chevron" viewBox="0 0 20 20"><path d="M7.835 15.691a.833.833 0 01-.642-1.367l3.734-4.466-3.6-4.475a.833.833 0 01.124-1.175.833.833 0 011.217.125l4.025 5a.833.833 0 010 1.058l-4.167 5a.833.833 0 01-.691.3z"/></symbol><symbol id="close" viewBox="0 0 20 20"><path d="M4.617 16.002a.617.617 0 01-.436-1.054L14.946 4.185a.617.617 0 01.873.873L5.054 15.82a.616.616 0 01-.437.18z"/><path d="M15.383 15.999a.612.612 0 01-.436-.181L4.18 5.054a.617.617 0 11.873-.873l10.765 10.764a.617.617 0 01-.436 1.054z"/></symbol><symbol id="heart" viewBox="0 0 16 14"><path d="M15.613 2.81a4.608 4.608 0 00-1.054-1.467A4.92 4.92 0 0013.003.36 5.107 5.107 0 0011.107 0c-.913 0-1.804.24-2.578.691A4.834 4.834 0 008 1.047a4.835 4.835 0 00-.528-.356A5.115 5.115 0 004.895 0C4.238 0 3.6.12 2.998.36a4.91 4.91 0 00-1.555.983A4.58 4.58 0 00.389 2.81 4.376 4.376 0 000 4.616c0 .59.126 1.205.376 1.83.21.523.51 1.066.893 1.613.607.867 1.442 1.77 2.48 2.687a27.626 27.626 0 003.493 2.61l.439.27a.617.617 0 00.638 0l.44-.27a27.989 27.989 0 003.492-2.61c1.038-.916 1.873-1.82 2.48-2.687.384-.547.686-1.09.893-1.612.25-.626.376-1.24.376-1.83a4.346 4.346 0 00-.387-1.807zM8 12.224S1.408 8.182 1.408 4.616c0-1.806 1.56-3.27 3.487-3.27 1.354 0 2.528.724 3.106 1.78.578-1.056 1.752-1.78 3.106-1.78 1.926 0 3.487 1.464 3.487 3.27 0 3.566-6.593 7.608-6.593 7.608z"/></symbol><symbol id="location" viewBox="0 0 14 14"><path d="M7.754 12a.293.293 0 01-.285-.225L6.458 7.51l-4.232-.986a.293.293 0 01-.046-.556l9.414-3.946a.293.293 0 01.383.384L8.024 11.82a.293.293 0 01-.27.18zM3.241 6.16l3.526.821c.108.025.193.11.218.218l.846 3.567L11.16 2.84 3.241 6.16z"/></symbol><symbol id="loupe" viewBox="0 0 18 18"><path fill-rule="evenodd" clip-rule="evenodd" d="M12.028 11.029l3.765 3.766a.706.706 0 01-.998.998l-3.766-3.766a5.6 5.6 0 11.999-.998zm-4.428.77a4.2 4.2 0 100-8.4 4.2 4.2 0 000 8.4z"/></symbol></svg>